<?xml version="1.0" encoding="UTF-8" standalone="no"?>
<svg
   inkscape:version="1.1 (c68e22c387, 2021-05-23)"
   sodipodi:docname="Seal_of_Qing_dynasty.svg"
   xml:space="preserve"
   enable-background="new 0 0 500 500"
   viewBox="0 0 500 500"
   height="500px"
   width="500px"
   y="0px"
   x="0px"
   id="Layer_1"
   version="1.1"
   xmlns:inkscape="http://www.inkscape.org/namespaces/inkscape"
   xmlns:sodipodi="http://sodipodi.sourceforge.net/DTD/sodipodi-0.dtd"
   xmlns="http://www.w3.org/2000/svg"
   xmlns:svg="http://www.w3.org/2000/svg"
   xmlns:rdf="http://www.w3.org/1999/02/22-rdf-syntax-ns#"
   xmlns:cc="http://creativecommons.org/ns#"
   xmlns:dc="http://purl.org/dc/elements/1.1/"><metadata
   id="metadata49"><rdf:RDF><cc:Work
       rdf:about=""><dc:format>image/svg+xml</dc:format><dc:type
         rdf:resource="http://purl.org/dc/dcmitype/StillImage" /></cc:Work></rdf:RDF></metadata><defs
   id="defs47" /><sodipodi:namedview
   inkscape:current-layer="g42"
   inkscape:window-maximized="1"
   inkscape:window-y="-6"
   inkscape:window-x="-6"
   inkscape:cy="105.31007"
   inkscape:cx="257.08934"
   inkscape:zoom="1.6570115"
   showgrid="false"
   id="namedview45"
   inkscape:window-height="778"
   inkscape:window-width="1280"
   inkscape:pageshadow="2"
   inkscape:pageopacity="0"
   guidetolerance="10"
   gridtolerance="10"
   objecttolerance="10"
   borderopacity="1"
   bordercolor="#666666"
   pagecolor="#ffffff"
   inkscape:pagecheckerboard="0" />
<g
   id="g42">
	<path
   style="stroke-width:1.02967"
   id="path2"
   d="m 313.60509,346.095 c 1.10156,12.445 -0.8609,32.593 -2.15542,52.696 -0.73367,11.418 -1.19699,23.142 -6.303,34.126 -5.09222,10.96 -13.35873,18.476 -25.41765,20.958 -16.65813,3.428 -33.44561,6.534 -50.80985,3.437 -26.10785,-4.659 -39.57367,-20.761 -43.97464,-43.9 -2.72051,-14.307 -2.82866,-28.974 -2.9686,-43.705 -0.20039,-21.194 -0.53859,-42.479 -0.63083,-63.711 -0.0456,-10.776 1.8522,-21.554 2.81275,-32.337 0.79729,-8.939 7.93785,-12.563 15.43995,-13.879 7.4088,-1.301 15.04766,-2.348 22.81694,-2.228 9.48364,0.147 19.14116,-2.195 28.44775,-1.193 13.10746,1.413 26.31035,0.405 39.39025,2.755 11.23724,2.019 15.05615,9.112 17.9675,17.975 6.59138,20.069 5.18023,40.708 5.38485,69.006 z m -53.32151,26.18 c -2.80852,27.94 8.13929,39.783 27.01858,52.012 8.15943,5.286 10.11023,4.15 11.79385,-5.375 3.84435,-21.77 5.27246,-43.938 4.74872,-65.762 -0.50149,-20.904 0.64885,-41.962 -2.42366,-62.9 -2.05576,-14.013 -11.5288,-23.913 -26.46302,-24.314 -20.30105,-0.545 -40.42927,1.774 -60.52251,3.835 -16.30508,1.674 -20.57352,5.448 -22.23276,16.896 -0.68278,4.712 -0.85453,9.536 -0.70716,14.293 0.1866,6.042 3.1446,9.411 10.0498,6.98 5.82165,-2.05 11.8034,-0.923 17.70881,-1.258 7.67703,-0.434 15.39329,0.199 23.05336,-1.113 3.82209,-0.654 5.90753,-1.998 4.98302,-5.886 -2.05364,-8.641 2.52756,-16.497 3.28986,-24.81 0.32867,-3.59 1.75254,-7.351 6.47687,-5.799 3.80618,1.248 5.07632,4.021 3.26759,8.655 -2.94317,7.532 0.35305,10.219 8.70544,8.737 5.40605,-0.96 7.0091,-4.416 7.93891,-8.864 0.41242,-1.975 0.6128,-4.952 4.19104,-4.23 2.36322,0.479 4.43913,1.729 5.35834,3.987 3.25274,7.973 -2.76293,17.111 -11.83415,17.415 -5.04982,0.168 -9.69251,2.643 -14.87273,1.775 -1.94762,-0.326 -3.59838,0.61 -3.44889,2.807 0.13995,2.039 -1.02841,4.375 2.18299,5.713 2.53922,1.057 4.98408,1.466 7.69188,1.617 8.8719,0.493 17.7491,1.044 26.58707,1.916 3.26441,0.323 6.59667,1.558 6.28073,5.675 -0.33715,4.391 -3.81149,4.376 -7.18828,4.102 -5.83649,-0.477 -11.64755,-1.363 -17.49358,-1.589 -20.58094,-0.798 -22.08963,1.169 -16.51289,20.251 0.55025,1.888 0.34881,4.214 2.73854,4.832 2.58269,0.668 3.26229,-1.73 4.58014,-3.174 4.74447,-5.194 10.62656,-8.866 17.73638,-10.403 3.25274,-0.702 6.77373,-0.181 8.35345,3.032 1.68363,3.42 -1.11959,4.776 -3.91856,6.24 -3.84435,2.01 -7.55511,4.321 -11.05277,6.836 -12.70776,9.134 -13.21349,11.966 -3.89842,23.925 4.74447,6.09 10.68169,11.163 17.62824,14.952 4.48684,2.446 5.56614,6.253 3.42132,9.73 -2.29325,3.72 -5.92238,0.654 -8.33225,-0.86 -4.4879,-2.819 -9.70947,-3.919 -13.67362,-8.546 -3.05767,-3.563 -4.63845,-9.35 -11.20968,-11.33 z m 29.99249,64.827 c -7.47454,-2.465 -13.95564,-5.537 -18.65453,-10.594 -18.13396,-19.514 -29.55674,-40.876 -19.29489,-67.718 0.99448,-2.604 0.62128,-5.555 -0.40925,-8.293 -3.29409,-8.77 -5.01376,-17.803 -4.55893,-27.108 0.22052,-4.513 -1.44614,-5.889 -6.4228,-6.829 -10.25654,-1.934 -20.61804,-1 -30.38159,0.136 -21.26371,2.473 -20.4007,-1.217 -20.39434,20.347 0.007,22.477 0.01,45.019 1.72286,67.415 1.38464,18.088 11.17893,36.784 32.01538,41.979 18.60575,4.64 37.00052,2.504 55.28079,-1.952 4.42853,-1.081 8.20184,-2.999 11.0973,-7.383 z"
   fill="#aa0f0f"
   clip-rule="evenodd"
   fill-rule="evenodd" />
	<path
   style="stroke-width:1.02967"
   id="path4"
   d="m 256.80925,149.502 c -1.92748,17.852 -3.76696,34.787 -1.80555,51.324 1.5002,12.628 -1.46841,24.924 0.16539,37.365 0.33185,2.512 0.82379,7.212 -3.06827,7.66 -4.9968,0.575 -4.75507,-3.827 -4.92577,-7.223 -0.89588,-17.82 -1.80555,-35.576 -0.64567,-53.491 0.62659,-9.681 1.66984,-19.646 -0.35623,-29.573 -1.17048,-5.731 -3.35135,-5.107 -6.73769,-2.527 -7.2593,5.534 -10.61171,12.976 -11.87867,21.639 -2.61556,17.888 -1.30301,35.86 -1.85114,53.791 -0.052,1.679 0.35517,3.525 -0.24809,5.004 -1.20229,2.944 -1.93066,7.395 -6.09731,7.02 -4.20694,-0.379 -4.1709,-4.79 -4.18468,-7.89 -0.10496,-24.745 -1.41539,-49.569 6.88929,-73.67 3.07569,-8.927 7.70248,-16.043 17.89223,-18.43 5.10813,-1.197 7.49468,-4.044 6.79918,-8.787 -0.79199,-5.402 -5.40287,-3.702 -9.06804,-4.014 -10.39013,-0.883 -20.50991,1.847 -30.84385,1.797 -6.55002,-0.032 -5.98598,4.988 -6.01461,9.025 -0.11132,15.551 0.73155,31.148 -0.25127,46.645 -1.12595,17.73 -1.84372,35.599 -6.28391,52.987 -0.7888,3.092 -0.95738,8.57 -6.17258,7.5 -4.59075,-0.942 -4.03731,-5.967 -3.23473,-9.362 5.88103,-24.887 5.78137,-50.283 8.02267,-75.498 1.74511,-19.644 -1.11747,-38.831 -2.90288,-58.188 -0.28414,-3.072 -2.04728,-7.803 2.38549,-8.559 4.41051,-0.753 5.70185,3.57 6.85219,7.308 0.83651,2.718 1.54579,5.297 1.57654,8.138 0.12829,11.596 0.18554,11.781 12.08436,11.441 8.8931,-0.254 17.76712,-1.065 26.65068,-1.626 2.75338,-0.174 6.32632,1.007 6.00295,-3.762 -0.24385,-3.583 0.79622,-7.522 -5.04876,-8.115 -2.87849,-0.292 -5.83331,-0.998 -8.46901,-2.114 -7.83289,-3.316 -13.4531,-8.85 -13.14033,-17.217 0.24385,-6.506 -1.87129,-8.038 -8.43721,-7.792 -7.65159,0.289 -15.43889,1.142 -23.07988,-1.126 -2.78307,-0.825 -5.21626,-1.034 -4.57483,-4.615 0.56191,-3.139 2.68871,-4.04 5.70079,-4.047 12.19674,-0.03 24.39454,-0.164 36.59128,-0.133 27.68651,0.071 55.38999,-0.79 83.03304,1.533 2.67917,0.224 5.93297,-0.204 6.66664,2.79 0.96692,3.94 -3.43404,4.737 -5.6764,5.03 -6.1482,0.805 -12.45861,0.851 -18.68527,0.648 -4.80809,-0.156 -6.89777,1.239 -7.43106,6 -1.71544,15.335 -4.1656,17.769 -20.04871,20.574 -3.86662,0.683 -8.10749,0.228 -7.44379,5.772 0.61493,5.119 3.5125,6.987 9.06698,6.685 8.02796,-0.437 16.13121,-0.537 24.14539,-0.014 8.00782,0.522 11.19271,-2.507 11.59666,-9.901 0.20144,-3.725 -0.25022,-7.74 2.13951,-11.354 1.11535,-1.686 1.69105,-4.011 3.97476,-3.857 2.83714,0.19 3.32484,2.646 3.52628,4.992 0.62553,7.295 -1.79177,14.454 -1.59669,21.593 0.4718,17.206 -0.2343,34.434 -0.59902,51.574 -0.50572,23.724 4.472,46.523 8.41389,69.551 0.6181,3.615 -0.69551,6.068 -2.62298,6.661 -2.68553,0.827 -4.99574,-1.563 -6.14926,-4.364 -3.43405,-8.335 -4.76886,-17.285 -5.46542,-25.899 -1.09945,-13.536 -3.30364,-27.096 -2.16072,-40.802 -1.28022,-12.60922 2.32026,-47.6761 -2.47127,-49.0005 -10.2378,-1.1704 -27.07453,-1.47031 -35.6234,0.7295 -2.3187,0.664 -5.78349,-0.768 -5.48345,3.416 0.20038,2.826 -1.10156,5.842 3.42344,7.46 18.12124,6.481 21.74294,20.928 23.80718,37.173 1.62532,12.792 2.28053,25.651 2.60284,38.382 0.15479,6.114 0.0859,13.229 -2.58481,19.586 -0.9754,2.319 -0.91391,5.727 -4.28646,5.129 -2.73536,-0.484 -4.97984,-2.955 -4.97772,-6.212 0.003,-5.582 -0.94465,-11.351 0.22052,-16.711 3.67048,-16.884 0.69657,-33.433 -2.25296,-49.898 -1.40054,-7.804 -6.97199,-13.791 -15.34982,-18.151 z m -7.49256,-70.19 c 0.001,-0.035 0.001,-0.069 0.001,-0.104 -3.55491,0 -7.113,0.094 -10.66579,-0.017 -10.29789,-0.323 -12.63037,2.785 -8.68636,11.817 1.17048,2.679 3.1849,4.522 6.12594,5.689 11.87231,4.712 23.02686,2.807 33.61737,-3.259 3.61216,-2.069 4.35113,-5.93 4.06381,-9.592 -0.33927,-4.309 -4.92577,-3.97 -7.59539,-4.317 -5.52374,-0.72 -11.22771,-0.217 -16.86064,-0.217 z"
   fill="#aa0f0f"
   clip-rule="evenodd"
   fill-rule="evenodd"
   sodipodi:nodetypes="cccccccccccccccccccccccccccccccsccccccccccccccccccccccccccccccccscccccccccccscccc" />
	<path
   style="stroke-width:1.02967"
   id="path6"
   d="m 442.33138,155.852 c -0.6531,-16.238 1.60517,-37.998 -1.59775,-59.666 -0.46332,-3.133 -0.85878,-6.604 -2.79367,-8.602 -4.43489,-4.577 -8.56126,-11.524 -16.26692,-9.943 -8.1043,1.662 -7.24234,9.851 -7.65159,15.396 -2.10559,28.53 -3.57823,57.187 -1.64651,85.712 1.39418,20.58 2.90499,41.172 4.28433,61.764 0.23961,3.559 1.37192,8.326 -4.05851,8.374 -4.52819,0.04 -7.38759,-3.11 -7.94103,-8.255 -1.65075,-15.303 -0.52798,-30.531 -0.17917,-45.827 0.46649,-20.479 -0.48876,-40.998 -1.18215,-61.489 -0.60326,-17.845 2.79156,-35.563 1.54474,-53.419 -0.36259,-5.162 -6.60409,-12.209 -11.23088,-10.869 -5.36364,1.553 -12.68232,2.529 -12.04195,10.626 0.34775,4.417 0.83227,8.825 1.34436,13.228 1.39524,12.01 -0.96586,23.753 -2.56043,35.576 -0.71883,5.326 -0.54707,10.772 -0.57464,16.165 -0.14101,27.922 0.85454,55.87 -3.44888,83.664 -0.7782,5.027 -2.87213,9.579 -4.04685,14.431 -0.48558,2.014 -2.72052,5.006 -5.44634,4.592 -3.37785,-0.515 -3.8136,-3.946 -3.99914,-6.705 -0.12935,-1.905 0.59054,-3.848 0.78562,-5.788 1.64758,-16.324 3.13612,-32.625 3.91963,-49.044 1.31572,-27.6 3.44464,-55.166 3.17429,-82.811 -0.0806,-8.171 -1.15034,-16.332 -1.70483,-24.5 -0.24385,-3.618 -1.28075,-4.62 -5.61385,-3.484 -14.2207,3.724 -20.99761,14.965 -20.01373,28.774 0.63507,8.903 -1.78116,18.147 -1.22455,27.326 0.82485,13.631 0.4824,27.303 1.12383,40.949 0.59372,12.612 -0.42408,25.674 -1.63061,38.484 -0.2693,2.856 -0.29156,7.118 -4.89715,6.433 -3.64396,-0.542 -5.56402,-3.514 -5.4071,-7.537 0.29474,-7.583 -0.45696,-15.236 0.28944,-22.766 2.83926,-28.628 0.56615,-57.323 1.73239,-85.951 0.80789,-19.806 6.20651,-28.79 26.58707,-35.252 6.89777,-2.186 14.05424,-4.234 21.23615,-4.857 6.56063,-0.569 8.07886,-3.222 7.54769,-8.588 -0.27672,-2.788 0.0159,-5.623 -0.0615,-8.432 -0.0975,-3.577 1.85962,-6.438 5.28412,-6.488 3.49766,-0.052 6.29769,2.449 7.13844,6.09 0.12511,0.54 0.10179,1.119 0.0848,1.678 -0.16009,5.532 -2.49575,12.424 1.23622,16.136 3.24426,3.228 10.42829,2.804 15.76649,4.322 6.92534,1.968 13.81463,3.256 19.97873,7.953 13.63228,10.389 13.78601,24.216 13.89203,38.626 0.17812,24.85 0.85984,49.696 1.21501,74.544 0.12405,8.673 0.20462,17.367 -0.30958,26.018 -0.20251,3.424 -1.53626,8.075 -6.05809,7.954 -5.22369,-0.139 -4.55363,-4.902 -4.56317,-8.458 -0.035,-16.873 -0.0148,-33.748 -0.0148,-56.084 z"
   fill="#aa0f0f"
   clip-rule="evenodd"
   fill-rule="evenodd" />
	<path
   style="stroke-width:1.02967"
   id="path8"
   d="m 168.5663,107.833 c 0.90542,18.235 0.19932,41.671 -3.75953,64.831 -2.71204,15.857 -5.86089,31.916 -24.1613,39.949 -6.87445,3.019 -13.84962,5.066 -21.09938,4.416 -9.03199,-0.812 -6.5214,5.479 -7.03136,9.294 -0.52375,3.929 0.51632,7.814 6.59985,7.724 11.5341,-0.17 23.05018,-0.217 34.54294,1.553 3.71288,0.571 7.44591,1.19 11.18105,1.727 2.94953,0.424 5.73472,1.583 4.90563,4.49 -0.74533,2.61 -1.86068,6.255 -6.33586,5.77 -4.65754,-0.505 -9.30023,-1.555 -13.95564,-1.594 -20.78238,-0.176 -41.57006,-0.249 -62.35032,0.005 -9.069101,0.111 -17.773486,3.586 -26.96557,3.283 -3.822084,-0.127 -7.529664,-0.473 -11.346446,-1.181 -4.298121,-0.797 -8.156252,-1.943 -8.205022,-5.912 -0.05089,-4.256 4.837772,-4.884 8.408584,-5.667 14.58859,-3.202 29.462379,-2.563 44.251354,-2.32 5.61279,0.093 6.9264,-1.332 7.74276,-6.742 1.43448,-9.508 -1.61789,-11.276 -11.57227,-12.365 -24.706243,-2.702 -45.922252,-15.879 -47.318558,-49.806 -0.899064,-21.811 -3.650328,-43.614 -2.227517,-65.462 1.059158,-16.279 3.109618,-32.504 4.787942,-48.745 0.254452,-2.467 0.468616,-5.598 3.815722,-5.781 2.889092,-0.159 4.645872,2.376 5.536455,4.751 2.118314,5.651 2.375947,11.553 1.457799,17.435 -1.960342,12.565 -0.986002,25.268 -2.032437,37.79 -0.566156,6.775 -1.347536,13.827 -1.987907,20.651 -1.927475,20.509 -2.762927,41.377 8.066133,60.245 7.302777,12.723 18.859146,20.224 35.250108,19.68 5.46118,-0.181 7.13844,-1.668 7.10345,-6.88 -0.1251,-19.063 0.40713,-38.13 0.44424,-57.195 0.053,-26.875 -0.0954,-53.75 -0.20357,-80.625 -0.0212,-5.335 0.0265,-10.664 2.40776,-15.614 0.66157,-1.376 0.90648,-3.561 3.06297,-3.678 2.39609,-0.13 4.05109,1.974 4.6289,3.447 1.27226,3.243 2.11832,6.825 2.15861,10.278 0.30428,25.764 1.49702,51.583 0.16327,77.28 -1.12383,21.651 -0.55343,43.281 -1.53095,64.895 -0.26824,5.944 1.97942,8.081 8.22622,7.7 24.54615,-1.498 27.31014,-6.632 32.71089,-29.472 4.89926,-20.719 6.68573,-41.997 5.73259,-63.376 -0.84605,-19.001 1.40373,-38.085 -1.75466,-57.044 -0.42514,-2.554 -1.13337,-6.369 2.96861,-6.831 3.20716,-0.361 4.76886,2.568 6.03052,5.236 1.37722,2.909 1.69741,5.871 1.6815,8.991 -0.0636,13.216 -0.0276,26.433 -0.0276,44.869 z"
   fill="#aa0f0f"
   clip-rule="evenodd"
   fill-rule="evenodd" />
	<path
   style="stroke-width:1.02967"
   id="path10"
   d="m 41.398529,292.699 c 2.814877,-2.994 5.720933,-4.522 9.530293,-4.634 4.168775,-0.121 8.030087,-1.54 11.768413,-3.197 5.615971,-2.491 6.918978,-7.564 5.177041,-11.998 -1.359199,-3.457 -6.111093,-1.328 -9.442296,-0.791 -3.199735,0.518 -6.473687,0.717 -9.61087,1.452 -2.664326,0.625 -5.734715,1.935 -6.882931,-1.263 -1.414329,-3.943 2.9262,-4.522 5.31381,-5.205 7.824404,-2.232 15.752709,-4.305 23.788096,-5.683 6.971989,-1.194 14.130575,-1.586 21.226615,-1.908 5.18128,-0.235 10.41345,0.431 10.41345,-6.827 0,-1.725 2.00169,-2.794 3.87297,-2.926 2.29219,-0.161 4.32145,0.852 4.60135,3.072 0.66051,5.225 4.52289,5.187 8.504,4.918 14.65114,-0.987 28.61315,3.004 42.74266,5.5 3.29516,0.582 9.59709,1.019 7.56253,6.961 -1.86068,5.436 -6.68997,4.487 -10.91811,2.589 -4.59605,-2.068 -9.58543,-2.426 -14.41154,-2.986 -2.5265,-0.293 -7.2116,-2.915 -8.02584,1.818 -0.64992,3.772 0.50572,8.105 5.15371,9.655 4.67662,1.558 9.34264,3.243 14.4444,3.636 2.91772,0.224 6.56487,1.556 4.98515,5.236 -1.07613,2.502 -2.98346,5.457 -7.47348,4.265 -5.06996,-1.344 -10.41133,-1.759 -15.53218,-2.968 -8.21775,-1.94 -14.09665,-5.851 -12.58478,-15.123 1.05174,-6.442 -2.729,-8.099 -8.72029,-8.529 -7.28899,-0.522 -5.47284,4.161 -5.55342,7.752 -0.12722,5.622 0.27672,11.27 -0.12192,16.87 -0.38274,5.363 1.79283,6.487 7.20205,6.122 10.07525,-0.682 19.98722,1.297 29.88329,3.012 8.89628,1.54 14.10725,6.932 16.4832,14.538 2.22328,7.125 4.28434,14.503 3.70122,22.027 -0.7623,9.836 1.91263,19.422 1.78222,29.154 -0.0816,6.077 -1.09626,12.146 -1.73875,18.215 -0.33397,3.162 -2.40033,4.15 -5.56614,4.008 -4.44125,-0.195 -5.17705,-2.758 -5.1622,-6.271 0.0753,-16.594 0.0392,-33.188 0.0265,-49.784 -0.002,-3.351 -0.30004,-6.563 -1.36132,-9.901 -4.38187,-13.784 -8.45311,-16.521 -23.90896,-15.204 -2.6622,0.228 -5.37212,0.208 -8.04493,0.056 -12.76925,-0.722 -13.89414,-0.746 -13.83477,11.08 0.0371,7.697 -0.55131,15.506 -0.1039,23.311 0.8715,15.155 -0.28414,30.655 -2.80746,45.869 -0.27035,1.628 -1.04325,2.881 -2.5424,2.917 -2.02289,0.048 -2.39821,-1.548 -3.05873,-3.289 -2.69825,-7.114 -2.51907,-14.56 -1.42069,-21.579 2.53286,-16.196 1.15988,-32.392 1.39419,-48.576 0.11874,-8.133 -4.17196,-10.914 -12.64415,-11.374 -8.46902,-0.462 -16.190583,2.127 -24.022409,4.079 -8.614265,2.145 -15.02646,12.815 -15.012677,23.321 0.02227,16.567 0.08376,33.136 0.08376,49.705 0,3.164 1.077181,6.874 -4.277977,7.49 -5.646717,0.649 -5.695487,-4.106 -5.911772,-6.608 -1.168359,-13.41 -2.128916,-26.999 0.174936,-40.274 1.134433,-6.547 1.007207,-13.134 2.366405,-19.704 2.950585,-14.265 8.105362,-18.36 24.178257,-22.814 9.188903,-2.548 19.150707,-2.83 28.815647,-3.53 4.44231,-0.321 6.62529,-1.413 6.50231,-5.842 -0.15479,-5.591 0.003,-11.146 1.13761,-16.721 0.69444,-3.41 0.69338,-7.921 -4.8823,-7.794 -5.29366,0.12 -11.42066,-0.508 -14.07544,5.751 -0.208863,0.493 -0.0488,1.116 -0.109203,1.675 -1.470521,13.721 -1.331633,14.265 -16.516066,17.754 -8.478558,1.945 -17.76076,6.964 -26.536179,-0.505 z"
   fill="#aa0f0f"
   clip-rule="evenodd"
   fill-rule="evenodd" />
	<path
   style="stroke-width:1.02967"
   id="path12"
   d="m 401.24477,425.928 c 0.60115,8.82 -1.10898,18.375 -3.41602,27.901 -0.94041,3.878 -3.74256,7.805 -6.85218,7.147 -3.41602,-0.724 -3.08205,-5.225 -2.5212,-9.073 4.09032,-28.084 6.9052,-56.271 5.58735,-84.691 -0.22053,-4.769 -0.60115,-9.646 0.17493,-14.315 1.25318,-7.53 1.57231,-13.584 -9.53665,-12.715 -2.8435,0.221 -6.26377,-1.999 -6.01567,-4 0.27989,-2.244 3.09053,-4.352 6.70481,-4.257 8.33967,0.216 16.69206,-0.023 25.03703,0.101 4.77946,0.07 7.17237,-1.549 6.98153,-6.407 -0.19614,-5.009 -3.23048,-4.407 -7.18085,-4.774 -5.30321,-0.495 -10.41027,3.005 -15.97959,-0.292 -2.67281,-1.585 -3.98006,-2.689 -4.00657,-5.517 -0.0276,-3.192 2.53922,-2.977 4.66708,-3.825 5.50995,-2.196 11.18529,-0.818 16.76628,-1.099 3.30363,-0.166 5.80893,-0.338 5.74107,-4.449 -0.0625,-3.644 -1.21819,-4.193 -5.23429,-4.328 -11.2277,-0.379 -20.27878,-12.394 -17.21581,-23.051 1.08885,-3.785 -1.77586,-11.067 4.99893,-10.954 6.13017,0.103 4.49108,6.674 5.09646,10.918 0.27036,1.907 1.12277,3.734 1.56912,5.629 0.86408,3.656 2.73536,6.104 7.17449,5.91 5.10283,-0.223 5.24278,-3.524 5.23006,-7.126 -0.0212,-5.053 -0.30535,-10.169 0.43469,-15.137 0.34669,-2.305 1.34011,-5.957 5.0742,-5.783 3.33862,0.154 3.71288,3.206 4.00338,5.711 0.54389,4.714 0.54495,9.51 1.48642,14.141 0.57888,2.845 -3.29727,8.048 3.715,8.139 5.76971,0.074 9.47516,-2.836 10.35515,-8.25 0.44847,-2.747 0.0933,-5.612 0.0827,-8.424 -0.01,-2.865 0.008,-6.128 3.71606,-6.646 3.61428,-0.507 4.96076,2.776 6.12594,5.244 3.66411,7.759 -2.3293,22.729 -10.68275,26.634 -3.07039,1.436 -6.40901,2.614 -9.76248,3.184 -2.94741,0.501 -5.36364,0.987 -5.37848,4.265 -0.018,3.116 2.40351,3.974 5.14417,4.812 3.20186,0.979 6.40371,1.167 9.68615,1.188 3.8295,0.024 8.24531,-0.707 8.35557,4.896 0.12404,6.252 -4.78794,5.174 -8.83055,5.249 -2.97921,0.055 -5.99553,0.285 -8.93445,-0.051 -4.88124,-0.558 -5.98175,1.853 -6.3295,5.777 -0.46438,5.239 3.32696,4.279 6.4387,4.313 6.85324,0.074 13.71179,0.203 20.56079,0 4.53455,-0.135 7.25613,2.405 7.113,5.812 -0.15055,3.562 -4.33735,3.179 -7.16601,2.84 -6.28709,-0.756 -7.97071,1.797 -8.50612,7.522 -3.26759,34.854 -0.31488,69.36 5.53433,103.754 0.23431,1.375 0.0456,2.81 0.11027,4.215 0.12404,2.688 -0.28732,5.347 -3.61428,5.773 -3.16793,0.405 -4.8452,-1.682 -5.45482,-4.45 -2.08863,-9.516 -4.66284,-18.948 -5.31381,-28.711 -0.42303,-6.342 0.2078,-12.612 -1.30407,-19.082 -1.28498,-5.503 -3.2994,-6.626 -8.63017,-6.698 -24.25565,-0.333 -24.25459,-0.462 -25.79933,23.03 z m 1.83206,-46.74 c -0.24173,16.515 -0.24173,16.509 17.15007,15.388 1.48007,-0.095 2.97179,-0.052 4.45716,-0.03 12.30594,0.173 12.6696,-0.148 12.44589,-11.405 -0.0445,-2.239 -0.13359,-4.48 -0.29368,-6.712 -1.01145,-14.104 -1.02099,-14.102 -16.04639,-13.986 -17.47026,0.133 -17.47026,0.133 -17.71305,16.745 z m 16.77052,-24.806 c 0,0.012 0,0.022 0,0.034 2.67705,0 5.36894,0.17 8.02796,-0.039 4.36598,-0.345 9.4423,1.279 9.62784,-6.293 0.17281,-6.978 -3.32166,-7.993 -8.99489,-7.998 -5.94464,-0.006 -11.89034,-0.016 -17.83073,-0.111 -4.90563,-0.079 -8.11279,0.406 -8.14459,6.713 -0.0329,6.372 3.05766,7.628 8.40858,7.689 2.96755,0.032 5.9351,0.005 8.90583,0.005 z"
   fill="#aa0f0f"
   clip-rule="evenodd"
   fill-rule="evenodd" />
	<path
   style="stroke-width:1.02967"
   id="path14"
   d="m 110.18437,408.003 c 1.72497,11.316 6.42916,13.993 20.55549,13.522 10.49191,-0.348 21.01245,0.073 31.51496,-0.122 3.76908,-0.07 7.29536,1.581 7.17237,4.364 -0.13889,3.13 -3.66941,6.259 -7.54874,5.682 -12.91451,-1.917 -25.89687,-1.787 -38.8294,-1.286 -3.64503,0.141 -7.782,-4.242 -10.46647,-0.269 -3.1287,4.63 -1.26696,10.375 -1.11005,15.592 0.13253,4.366 4.34053,2.874 6.98684,2.941 14.2684,0.358 28.59618,-0.837 42.77658,1.707 1.99003,0.355 4.17726,-0.292 5.86937,1.354 1.39312,1.354 3.88887,2.329 2.77883,4.672 -0.87044,1.832 -2.71204,2.632 -5.1569,2.386 -35.57771,-3.579 -71.26463,-1.083 -106.899593,-1.646 -2.87849,-0.047 -5.770763,-0.366 -8.618507,-0.79 -3.207158,-0.475 -7.488315,-0.987 -7.149046,-4.747 0.296861,-3.301 4.383999,-4.522 7.718383,-4.386 11.671932,0.482 23.396876,-0.633 35.031703,1.185 5.31699,0.831 12.47239,1.052 14.81123,-2.689 2.49151,-3.979 1.50445,-10.441 0.58312,-15.587 -0.59372,-3.314 -5.25019,-1.813 -7.83606,-1.854 -13.701191,-0.22 -27.410862,0.149 -41.118412,0.153 -3.617461,0 -8.765877,1.358 -9.486824,-3.652 -0.811067,-5.629 4.49214,-4.867 8.14989,-4.885 13.579264,-0.071 27.163829,-0.076 40.739916,0.176 5.92661,0.109 10.18232,0.109 10.18656,-7.689 0.004,-7.93 -5.26822,-5.742 -9.43593,-5.79 -13.11913,-0.151 -26.24038,-0.071 -39.360569,-0.051 -3.882516,0.006 -8.92491,0.461 -9.039413,-4.311 -0.101781,-4.27 4.959697,-5.493 8.721348,-5.584 14.891812,-0.364 29.963862,-1.598 44.644694,0.053 12.18826,1.37 24.20582,0.845 36.29124,1.199 9.53241,0.278 19.08073,0.224 28.61844,0.14 4.17408,-0.036 8.74786,0.481 8.6588,4.959 -0.0774,3.888 -4.14227,5.351 -8.54429,5.313 -16.97302,-0.144 -33.94816,-0.06 -51.20956,-0.06 z"
   fill="#aa0f0f"
   clip-rule="evenodd"
   fill-rule="evenodd" />
	<path
   style="stroke-width:1.02967"
   id="path16"
   d="m 340.1137,372.684 c 2.7131,-18.836 2.20419,-38.432 10.04238,-57.325 6.36449,-15.335 3.32378,-31.719 -1.67302,-47.381 -1.03901,-3.259 -2.62828,-7.415 0.93723,-8.992 3.94189,-1.743 6.85218,2.104 8.63653,5.157 6.64438,11.372 6.22984,23.715 4.5918,36.039 -0.31912,2.398 -1.08142,4.307 1.37722,5.859 2.98876,1.89 5.13252,-0.158 7.06847,-1.688 2.6198,-2.07 3.3874,-4.93 3.3768,-8.24 -0.0297,-8.1 -0.11239,-16.133 -2.01336,-24.127 -0.55237,-2.325 -3.33544,-6.23 1.91369,-7.471 4.94168,-1.165 7.67386,2.115 8.29833,5.66 1.29134,7.33 2.36004,14.865 1.99639,22.249 -0.67006,13.601 -5.81,23.981 -21.61996,28.725 -7.79259,2.338 -10.00421,11.632 -10.01799,19.377 -0.0668,36.427 -3.1022,73.085 8.52839,108.717 1.01993,3.123 0.21734,6.547 -3.42238,7.622 -3.81785,1.125 -4.82293,-2.372 -6.01356,-4.813 -4.5812,-9.401 -6.05172,-19.7 -7.59857,-29.662 -2.52438,-16.232 -3.01314,-32.743 -4.40839,-49.706 z"
   fill="#aa0f0f"
   clip-rule="evenodd"
   fill-rule="evenodd" />
	<path
   style="stroke-width:1.02967"
   id="path18"
   d="m 240.55187,45.51 c 18.8019,0 37.60591,-0.104 56.40357,0.112 2.79897,0.031 6.68149,-0.293 7.64734,3.669 1.2659,5.189 -3.39269,4.983 -6.45142,5.868 -10.13886,2.933 -20.43887,0.899 -30.70177,0.726 -22.13628,-0.372 -44.27786,-0.379 -66.41732,-0.581 -3.72348,-0.034 -8.56761,0.906 -9.00548,-4.286 -0.42939,-5.098 4.54621,-3.988 7.75125,-4.689 13.49974,-2.954 27.20305,-0.305 40.77383,-0.819 z"
   fill="#aa0f0f"
   clip-rule="evenodd"
   fill-rule="evenodd" />
	<path
   style="stroke-width:1.02967"
   id="path20"
   d="m 322.63178,371.928 c -0.60433,-11.653 -0.58418,-22.827 3.61852,-33.463 1.08884,-2.76 1.85644,-7.447 6.77373,-6.175 3.94613,1.021 1.97836,4.833 1.83099,7.25 -0.9913,16.052 -4.11364,31.993 -3.363,48.131 0.85135,18.288 1.96882,36.57 6.56592,54.482 0.71247,2.774 2.31127,6.882 -1.48854,8.054 -4.26208,1.313 -5.57781,-2.776 -6.98366,-5.891 -3.77437,-8.352 -4.78052,-17.452 -4.86851,-26.103 -0.16116,-15.641 -3.61747,-31.105 -2.08545,-46.285 z"
   fill="#aa0f0f"
   clip-rule="evenodd"
   fill-rule="evenodd" />
	<path
   style="stroke-width:1.02967"
   id="path22"
   d="m 372.9974,344.063 c -1.25529,10.11 -3.31742,20.205 -3.55597,30.339 -0.27671,11.764 0.52587,23.611 1.83312,35.325 1.15882,10.364 2.75869,20.749 6.44082,30.726 0.80683,2.188 1.34648,5.756 -1.6391,6.73 -3.67153,1.196 -4.49956,-2.498 -5.74955,-4.795 -4.10411,-7.553 -4.63421,-15.989 -5.59689,-24.104 -3.10326,-26.114 -7.47665,-52.284 -1.1726,-78.548 0.25869,-1.077 0.3117,-2.268 0.85559,-3.199 1.11005,-1.9 2.06531,-4.604 4.8452,-4.252 3.3365,0.426 3.45206,3.24 3.36089,5.854 -0.0668,1.961 -0.0127,3.925 -0.0127,5.888 0.13253,0.012 0.26188,0.024 0.39122,0.036 z"
   fill="#aa0f0f"
   clip-rule="evenodd"
   fill-rule="evenodd" />
	<path
   style="stroke-width:1.02967"
   id="path24"
   d="m 60.935154,346.23 c 0.257632,-1.401 0.05089,-2.857 0.723068,-3.528 5.554478,-5.543 4.459274,-10.784 0.19508,-16.576 -1.465221,-1.988 -2.179807,-5.741 0.816367,-7.461 2.722638,-1.564 5.322291,0.853 6.769488,2.724 3.849649,4.973 7.108757,4.639 10.946744,0.074 2.626158,-3.122 6.564869,-4.933 9.917269,-1.869 2.62086,2.397 1.73982,5.747 -0.80046,8.898 -3.48706,4.324 -6.121695,9.003 -0.41561,14.244 1.21819,1.12 5.31699,5.014 0.79305,7.691 -3.15945,1.873 -6.586073,1.07 -8.510367,-1.91 -4.344771,-6.723 -8.080977,-3.957 -11.94759,0.281 -1.675143,1.837 -3.722423,2.67 -6.299811,2.026 -3.041764,-0.758 -1.46416,-3.214 -2.187228,-4.594 z"
   fill="#aa0f0f"
   clip-rule="evenodd"
   fill-rule="evenodd" />
	<path
   style="stroke-width:1.02967"
   id="path26"
   d="m 120.25643,353.932 c 3.081,-0.127 4.89503,1.885 6.57335,3.778 3.51462,3.964 6.64438,3.83 10.15476,-0.051 2.29855,-2.544 5.38485,-5.665 8.92173,-2.747 3.00572,2.48 0.67854,5.313 -1.59032,7.896 -3.74469,4.264 -3.58248,8.489 1.15881,12.411 2.37065,1.964 5.26928,4.478 1.92006,7.739 -2.8064,2.733 -6.07081,1.701 -8.74468,-0.258 -5.8948,-4.32 -11.05806,-5.053 -15.7103,1.598 -1.46628,2.095 -4.18891,2.797 -5.98598,0.668 -1.20653,-1.428 -3.10644,-3.545 -0.79093,-5.919 1.15776,-1.187 1.52566,-3.096 2.74809,-4.183 3.81042,-3.387 6.69103,-6.106 -0.003,-9.891 -3.00784,-1.7 -3.2835,-5.771 -2.19783,-9.244 0.5142,-1.651 1.98366,-1.867 3.54642,-1.797 z"
   fill="#aa0f0f"
   clip-rule="evenodd"
   fill-rule="evenodd" />
	<path
   style="stroke-width:1.02967"
   id="path28"
   d="m 122.02806,348.109 c -6.38675,-1.021 -6.61152,-4.21 -4.1762,-6.87 4.83459,-5.277 5.40923,-10.027 0.76442,-15.666 -1.25106,-1.519 -3.5231,-4.296 -0.0509,-6.484 3.00359,-1.891 5.73789,-1.222 7.74488,1.171 3.4701,4.137 6.1323,4.128 9.82716,-0.055 1.96564,-2.223 5.24489,-5.383 9.05638,-2.331 3.56339,2.853 1.80767,7.212 -0.30111,9.015 -6.75888,5.786 -3.15096,9.433 1.6497,13.641 1.59245,1.397 3.47115,3.668 1.58821,5.905 -0.97752,1.162 -2.98663,1.751 -4.88548,1.116 -7.60176,-2.541 -15.31166,-12.806 -21.21707,0.558 z"
   fill="#aa0f0f"
   clip-rule="evenodd"
   fill-rule="evenodd" />
	<path
   style="stroke-width:1.02967"
   id="path30"
   d="m 91.5924,359.885 c -1.07188,2.701 -2.96755,4.834 -5.26398,6.663 -4.408385,3.515 -4.373398,6.88 0.15055,10.315 2.97709,2.261 5.52903,5.609 2.44698,8.478 -2.58163,2.402 -6.588189,-0.145 -8.392679,-2.336 -4.539851,-5.51 -8.227286,-3.641 -11.897759,0.438 -2.924079,3.246 -7.000615,4.551 -10.036017,1.99 -3.452068,-2.91 0.09012,-6.434 2.461824,-8.381 5.301087,-4.355 6.870209,-7.9 -0.04347,-12.095 -3.02374,-1.835 -4.24405,-4.472 -1.173661,-7.582 3.481754,-3.527 5.896929,0.112 7.27097,1.596 5.51207,5.952 10.084788,5.476 15.07311,-0.448 1.551098,-1.842 3.716062,-4.079 6.814022,-2.605 1.50233,0.716 3.10219,1.853 2.59011,3.967 z"
   fill="#aa0f0f"
   clip-rule="evenodd"
   fill-rule="evenodd" />
	<path
   style="stroke-width:1.02967"
   id="path32"
   d="m 343.85415,290.233 c 0.99978,7.922 -1.18744,15.445 -3.53689,22.888 -1.26165,3.996 -3.50826,7.51 -7.91452,9.399 -2.29537,0.983 -4.35007,2.011 -6.12487,-0.533 -1.4472,-2.075 -2.61344,-3.656 -0.0594,-6.394 8.84116,-9.465 12.80001,-20.32 9.06274,-33.088 -0.80788,-2.762 -2.42578,-5.07 -3.26865,-7.674 -0.68384,-2.116 -4.18362,-5.083 0.54071,-6.684 3.55067,-1.202 6.31572,0.136 7.7714,3.607 2.48939,5.944 4.47411,11.959 3.52946,18.479 z"
   fill="#aa0f0f"
   clip-rule="evenodd"
   fill-rule="evenodd" />
	<path
   style="stroke-width:1.02967"
   id="path34"
   d="m 236.67572,351.316 c 0,4.481 -0.0286,8.963 0.005,13.443 0.0742,9.616 -5.39757,15.322 -15.75165,16.384 -10.05192,1.03 -17.6505,-3.729 -19.37017,-12.901 -2.09605,-11.187 -2.85517,-22.49 -1.06022,-33.838 0.36048,-2.28 0.61387,-4.884 3.15839,-5.457 3.14779,-0.709 5.09328,1.764 5.74002,4.183 1.29982,4.865 5.18022,6.7 9.15179,5.275 3.26335,-1.17 9.99149,0.412 9.07016,-6.528 -0.27459,-2.071 1.10263,-4.73 2.87319,-4.345 2.47879,0.537 5.79303,1.6 5.76546,5.272 -0.0488,6.171 -0.0138,12.341 -0.0138,18.512 0.14313,0 0.28732,0 0.43151,0 z m -26.82774,6.426 c -0.20886,10.552 1.40479,12.896 8.8878,12.914 6.99319,0.018 10.5322,-4.278 10.61172,-13.04 0.0435,-4.656 1.24575,-9.963 -6.6147,-10.243 -10.18975,-0.364 -12.71095,1.572 -12.88482,10.369 z"
   fill="#aa0f0f"
   clip-rule="evenodd"
   fill-rule="evenodd" />
	<path
   style="stroke-width:1.02967"
   id="path36"
   d="m 420.24599,382.54 c -1.85114,0 -3.03858,-0.069 -4.2133,0.014 -4.26314,0.295 -8.6747,-1.094 -8.86236,-4.984 -0.22689,-4.743 5.09434,-3.145 8.24319,-3.672 1.41115,-0.235 2.93044,0.114 4.39884,0.201 4.27586,0.257 10.55446,-0.719 10.22792,4.973 -0.32867,5.734 -6.80448,2.459 -9.79429,3.468 z"
   fill="#aa0f0f"
   clip-rule="evenodd"
   fill-rule="evenodd" />
	<path
   style="stroke-width:1.02967"
   id="path38"
   d="m 247.63731,401.289 c 0,0 4.032,10.577 -4.24617,6.122 0,0 -34.0086,0.366 -40.53423,1.332 0,0 -10.8227,2.697 -2.85729,-7.454 0,0 12.1098,-7.058 41.51175,-2.836 -0.001,0 4.92577,0.888 6.12594,2.836 z"
   fill="#aa0f0f"
   clip-rule="evenodd"
   fill-rule="evenodd" />
	<path
   style="stroke-width:1.02967"
   sodipodi:nodetypes="cccccccccc"
   id="path40"
   d="M 4,4 V 496 H 496 V 4 Z M 467,467 H 33 V 33 h 434 z"
   fill="#aa0f0f" />
</g>
</svg>
